<svg width="14" height="11" viewBox="0 0 14 11" fill="none" xmlns="http://www.w3.org/2000/svg">
<path d="M13.3001 0.555087C12.7738 0.926311 12.1911 1.21024 11.5744 1.39593C11.2434 1.01536 10.8035 0.745619 10.3143 0.623193C9.82498 0.500767 9.3099 0.531563 8.83869 0.711415C8.36747 0.891267 7.96287 1.2115 7.67958 1.6288C7.3963 2.0461 7.24801 2.54033 7.25477 3.04465V3.59422C6.28897 3.61927 5.33197 3.40507 4.46899 2.9707C3.60602 2.53634 2.86386 1.89529 2.30862 1.10466C2.30862 1.10466 0.110327 6.05081 5.05648 8.2491C3.92465 9.01739 2.57635 9.40262 1.20947 9.34825C6.15563 12.0961 12.2009 9.34825 12.2009 3.02816C12.2004 2.87508 12.1857 2.72238 12.157 2.57202C12.7179 2.01887 13.1137 1.32048 13.3001 0.555087V0.555087Z" stroke="black" stroke-width="1.09915" stroke-linecap="round" stroke-linejoin="round"/>
</svg>
